# xmcd CD database file
#
# Track frame offsets:
#	150
#	25988
#	57993
#	73831
#	97116
#	124969
#	135292
#	184562
#	201373
#	221615
#	238307
#	256847
#	271542
#	294711
#	312798
#
# Disc length: 4540 seconds
#
# Revision: 0
# Processed by: cddbd v1.5.2PL0 Copyright (c) Steve Scherf et al.
# Submitted via: CDex 1.81
#
DISCID=e511ba0f
DTITLE=The Modern Jazz Quartet - Jazz Best
DYEAR=2012
DGENRE=Jazz
TTITLE0=Bag's Groove
TTITLE1=DJango
TTITLE2=Softly As In A Morning Sunrise
TTITLE3=I'll Remember April
TTITLE4=A Night In Tunisia
TTITLE5=Rose Of The Rio Grande
TTITLE6=Pyramid (Blues For Junior)
TTITLE7=Concorde
TTITLE8=Venice
TTITLE9=Autumn In New York
TTITLE10=Baden-Baden
TTITLE11=The Queen's Fancy
TTITLE12=Bluesology
TTITLE13=Delaunay's Dilemma
TTITLE14=Skating In Central Park
EXTD=YEAR: 2012
EXTT0=
EXTT1=
EXTT2=
EXTT3=
EXTT4=
EXTT5=
EXTT6=
EXTT7=
EXTT8=
EXTT9=
EXTT10=
EXTT11=
EXTT12=
EXTT13=
EXTT14=
PLAYORDER=
